<svg width="165" height="188" viewBox="0 0 165 188" fill="none" xmlns="http://www.w3.org/2000/svg">
<g clip-path="url(#clip0)">
<path fill-rule="evenodd" clip-rule="evenodd" d="M165.21 56.7599C165.21 50.5199 160.81 42.8299 155.44 39.6699L92.6901 2.7699C87.3101 -0.390097 78.5201 -0.390097 73.1401 2.7699L10.4001 39.6699C5.03013 42.8399 0.630127 50.5199 0.630127 56.7599V130.88C0.630127 137.12 5.03013 144.81 10.4001 147.97L73.1401 184.87C78.5201 188.03 87.3101 188.03 92.6901 184.87L155.43 147.97C160.81 144.81 165.2 137.12 165.2 130.88V56.7599H165.21Z" fill="#FF3E96"/>
<path fill-rule="evenodd" clip-rule="evenodd" d="M165.21 56.7599C165.21 50.5199 160.81 42.8299 155.44 39.6699L92.6901 2.7699C87.3101 -0.390097 78.5201 -0.390097 73.1401 2.7699L10.4001 39.6699C5.03013 42.8399 0.630127 50.5199 0.630127 56.7599V130.88C0.630127 137.12 5.03013 144.81 10.4001 147.97L73.1401 184.87C78.5201 188.03 87.3101 188.03 92.6901 184.87L155.43 147.97C160.81 144.81 165.2 137.12 165.2 130.88V56.7599H165.21Z" fill="url(#paint0_linear)"/>
<path d="M77.4002 156.51C75.8302 156.51 74.2302 156.1 72.7902 155.23L29.7902 129.5C27.0702 127.88 25.4102 124.94 25.4102 121.78V64.87C25.4102 61.62 27.1602 58.63 29.9902 57.03L59.5802 40.34C62.3702 38.77 65.7802 38.79 68.5402 40.41C71.3002 42.02 73.0002 44.98 73.0002 48.18V76.97L106.36 96.48C109.12 98.09 110.82 101.05 110.82 104.25V124.07L122.41 117.53V70.97L83.8102 47.86C79.5502 45.31 78.1602 39.78 80.7102 35.52C83.2602 31.26 88.7902 29.87 93.0502 32.42L136.04 58.15C138.76 59.77 140.42 62.71 140.42 65.87V122.78C140.42 126.03 138.67 129.02 135.84 130.62L106.25 147.31C103.46 148.88 100.05 148.86 97.2902 147.24C94.5302 145.63 92.8302 142.67 92.8302 139.47V109.4L59.4702 89.9C56.7102 88.29 55.0102 85.33 55.0102 82.13V63.58L43.4202 70.12V116.67L82.0402 139.78C86.3002 142.33 87.6902 147.86 85.1402 152.12C83.4502 154.95 80.4602 156.51 77.4002 156.51Z" fill="white"/>
</g>
<defs>
<linearGradient id="paint0_linear" x1="124.789" y1="21.3012" x2="41.05" y2="166.341" gradientUnits="userSpaceOnUse">
<stop offset="1.86995e-07" stop-color="white" stop-opacity="0.4"/>
<stop offset="1" stop-color="white" stop-opacity="0"/>
</linearGradient>
<clipPath id="clip0">
<rect width="165" height="188" fill="white"/>
</clipPath>
</defs>
</svg>
