<svg width="630" height="186" viewBox="0 0 630 186" fill="none" xmlns="http://www.w3.org/2000/svg">
<g clip-path="url(#clip0)">
<path d="M234.501 114.109H243.201C248.067 114.109 250.501 111.643 250.501 106.709V74.2094C250.501 69.276 248.067 66.8094 243.201 66.8094H234.501C229.701 66.8094 227.301 69.276 227.301 74.2094V106.709C227.301 111.643 229.701 114.109 234.501 114.109ZM244.701 122.609H233.101C228.167 122.609 224.334 121.243 221.601 118.509C218.934 115.776 217.601 111.976 217.601 107.109V73.8094C217.601 68.876 218.934 65.076 221.601 62.4094C224.334 59.676 228.167 58.3094 233.101 58.3094H244.701C249.634 58.3094 253.467 59.676 256.201 62.4094C258.934 65.076 260.301 68.876 260.301 73.8094V107.109C260.301 111.976 258.934 115.776 256.201 118.509C253.467 121.243 249.634 122.609 244.701 122.609ZM280.776 136.709H274.476C273.343 136.709 272.776 136.143 272.776 135.009V73.3094C272.776 72.176 273.343 71.6094 274.476 71.6094H280.776C281.91 71.6094 282.476 72.176 282.476 73.3094V76.9094H282.876C284.476 73.376 287.843 71.6094 292.976 71.6094H298.076C302.876 71.6094 306.543 72.9427 309.076 75.6094C311.676 78.276 312.976 82.1094 312.976 87.1094V107.109C312.976 112.043 311.676 115.876 309.076 118.609C306.543 121.276 302.876 122.609 298.076 122.609H292.976C287.843 122.609 284.476 120.843 282.876 117.309H282.476V135.009C282.476 136.143 281.91 136.709 280.776 136.709ZM290.676 114.109H295.976C300.776 114.109 303.176 111.643 303.176 106.709V87.5094C303.176 82.576 300.776 80.1094 295.976 80.1094H290.676C285.21 80.1094 282.476 82.9427 282.476 88.6094V105.609C282.476 111.276 285.21 114.109 290.676 114.109ZM360.634 122.609H339.034C334.101 122.609 330.268 121.243 327.534 118.509C324.868 115.776 323.534 111.976 323.534 107.109V87.1094C323.534 82.176 324.868 78.376 327.534 75.7094C330.268 72.976 334.101 71.6094 339.034 71.6094H347.234C352.168 71.6094 356.001 72.976 358.734 75.7094C361.468 78.376 362.834 82.176 362.834 87.1094V99.8089C362.834 101.009 362.234 101.609 361.034 101.609H334.234C333.501 101.609 333.134 101.943 333.134 102.609V106.909C333.134 111.776 335.568 114.209 340.434 114.209H360.634C361.834 114.209 362.434 114.809 362.434 116.009V121.009C362.434 122.076 361.834 122.609 360.634 122.609ZM334.234 94.8094H352.134C352.801 94.8094 353.134 94.476 353.134 93.8094V87.4094C353.134 84.876 352.568 83.0427 351.434 81.9094C350.301 80.7094 348.468 80.1094 345.934 80.1094H340.434C337.901 80.1094 336.068 80.7094 334.934 81.9094C333.801 83.0427 333.234 84.876 333.234 87.4094V93.8094C333.234 94.476 333.568 94.8094 334.234 94.8094ZM381.851 122.609H375.551C374.417 122.609 373.851 122.043 373.851 120.909V73.3094C373.851 72.176 374.417 71.6094 375.551 71.6094H381.851C382.984 71.6094 383.551 72.176 383.551 73.3094V76.9094H383.951C385.551 73.376 388.917 71.6094 394.051 71.6094H398.451C403.317 71.6094 407.051 72.9427 409.651 75.6094C412.251 78.276 413.551 82.1094 413.551 87.1094V120.909C413.551 122.043 412.951 122.609 411.751 122.609H405.451C404.317 122.609 403.751 122.043 403.751 120.909V87.5094C403.751 82.576 401.317 80.1094 396.451 80.1094H391.751C386.284 80.1094 383.551 82.9427 383.551 88.6094V120.909C383.551 122.043 382.984 122.609 381.851 122.609ZM434.511 122.609H428.211C427.078 122.609 426.511 122.043 426.511 120.909V60.0094C426.511 58.876 427.078 58.3094 428.211 58.3094H434.511C435.644 58.3094 436.211 58.876 436.211 60.0094V85.0094C436.211 85.676 436.611 86.0094 437.411 86.0094H458.511C459.178 86.0094 459.511 85.676 459.511 85.0094V60.0094C459.511 58.876 460.078 58.3094 461.211 58.3094H467.611C468.744 58.3094 469.311 58.876 469.311 60.0094V120.909C469.311 122.043 468.744 122.609 467.611 122.609H461.211C460.078 122.609 459.511 122.043 459.511 120.909V95.6094C459.511 94.9427 459.178 94.6094 458.511 94.6094H437.411C436.611 94.6094 436.211 94.9427 436.211 95.6094V120.909C436.211 122.043 435.644 122.609 434.511 122.609ZM517.633 122.609H485.633C484.499 122.609 483.933 122.043 483.933 120.909V60.0094C483.933 58.876 484.499 58.3094 485.633 58.3094H517.633C518.699 58.3094 519.233 58.876 519.233 60.0094V65.1094C519.233 66.2427 518.699 66.8094 517.633 66.8094H494.833C494.033 66.8094 493.633 67.1427 493.633 67.8094V84.7094C493.633 85.376 494.033 85.7094 494.833 85.7094H514.133C515.333 85.7094 515.933 86.276 515.933 87.4094V92.5094C515.933 93.6427 515.333 94.2094 514.133 94.2094H494.833C494.033 94.2094 493.633 94.5427 493.633 95.2094V113.009C493.633 113.743 494.033 114.109 494.833 114.109H517.633C518.699 114.109 519.233 114.676 519.233 115.809V120.909C519.233 122.043 518.699 122.609 517.633 122.609ZM536.08 122.609H528.68C528.146 122.609 527.746 122.443 527.48 122.109C527.28 121.776 527.313 121.343 527.58 120.809L544.08 89.3094L528.28 60.1094C528.013 59.6427 527.98 59.2427 528.18 58.9094C528.446 58.5094 528.846 58.3094 529.38 58.3094H536.48C537.813 58.3094 538.746 58.876 539.28 60.0094L550.78 83.2094H551.18L562.68 60.0094C563.28 58.876 564.146 58.3094 565.28 58.3094H572.68C573.213 58.3094 573.58 58.5094 573.78 58.9094C574.046 59.3094 574.08 59.7427 573.88 60.2094L557.88 89.3094L574.38 120.709C574.646 121.243 574.68 121.709 574.48 122.109C574.28 122.443 573.88 122.609 573.28 122.609H565.78C564.713 122.609 563.946 122.076 563.48 121.009L551.18 96.6094H550.78L538.48 121.009C538.013 122.076 537.213 122.609 536.08 122.609ZM588.116 122.609H580.916C579.983 122.609 579.65 122.043 579.916 120.909L597.316 60.0094C597.65 58.876 598.45 58.3094 599.716 58.3094H609.716C611.05 58.3094 611.85 58.876 612.116 60.0094L629.516 120.909C629.783 122.043 629.416 122.609 628.416 122.609H621.316C620.716 122.609 620.283 122.509 620.016 122.309C619.816 122.043 619.65 121.576 619.516 120.909L615.716 107.909H593.716L589.916 120.909C589.65 122.043 589.05 122.609 588.116 122.609ZM604.516 67.9094L595.716 99.9089H613.816L604.916 67.9094H604.516Z" fill="#828282"/>
<path fill-rule="evenodd" clip-rule="evenodd" d="M164.58 56.36C164.58 50.12 160.18 42.43 154.81 39.27L92.06 2.37C86.68 -0.79 77.89 -0.79 72.51 2.37L9.76998 39.27C4.4 42.44 0 50.12 0 56.36V130.48C0 136.72 4.4 144.41 9.76998 147.57L72.51 184.47C77.89 187.63 86.68 187.63 92.06 184.47L154.8 147.57C160.18 144.41 164.57 136.72 164.57 130.48V56.36H164.58Z" fill="#FF3E96"/>
<path fill-rule="evenodd" clip-rule="evenodd" d="M164.58 56.36C164.58 50.12 160.18 42.43 154.81 39.27L92.06 2.37C86.68 -0.79 77.89 -0.79 72.51 2.37L9.76998 39.27C4.4 42.44 0 50.12 0 56.36V130.48C0 136.72 4.4 144.41 9.76998 147.57L72.51 184.47C77.89 187.63 86.68 187.63 92.06 184.47L154.8 147.57C160.18 144.41 164.57 136.72 164.57 130.48V56.36H164.58Z" fill="url(#paint0_linear)"/>
<path d="M76.7698 156.11C75.1998 156.11 73.5998 155.7 72.1598 154.83L29.1598 129.1C26.4398 127.48 24.7798 124.54 24.7798 121.38V64.4699C24.7798 61.2199 26.5298 58.2299 29.3598 56.6299L58.9498 39.9399C61.7398 38.3699 65.1498 38.3899 67.9098 40.0099C70.6698 41.6199 72.3698 44.5799 72.3698 47.7799V76.5699L105.73 96.0799C108.49 97.6899 110.19 100.65 110.19 103.85V123.67L121.78 117.13V70.5699L83.1798 47.4599C78.9198 44.9099 77.5298 39.3799 80.0798 35.1199C82.6298 30.8599 88.1598 29.4699 92.4198 32.0199L135.41 57.7499C138.13 59.3699 139.79 62.3099 139.79 65.4699V122.38C139.79 125.63 138.04 128.62 135.21 130.22L105.62 146.91C102.83 148.48 99.4198 148.46 96.6598 146.84C93.8998 145.23 92.1998 142.27 92.1998 139.07V109L58.8398 89.4999C56.0798 87.8899 54.3798 84.9299 54.3798 81.7299V63.1799L42.7898 69.7199V116.27L81.4098 139.38C85.6698 141.93 87.0598 147.46 84.5098 151.72C82.8198 154.55 79.8298 156.11 76.7698 156.11Z" fill="white"/>
</g>
<defs>
<linearGradient id="paint0_linear" x1="124.159" y1="20.9013" x2="40.4199" y2="165.941" gradientUnits="userSpaceOnUse">
<stop offset="1.86995e-07" stop-color="white" stop-opacity="0.4"/>
<stop offset="1" stop-color="white" stop-opacity="0"/>
</linearGradient>
<clipPath id="clip0">
<rect width="630" height="186" fill="white"/>
</clipPath>
</defs>
</svg>
