<svg width="196" height="176" viewBox="0 0 196 176" fill="none" xmlns="http://www.w3.org/2000/svg">
    <path d="M189.91 57L107.17 3.34C104.1 1.49689 100.586 0.523254 97.005 0.523254C93.4239 0.523254 89.9103 1.49689 86.84 3.34L6.48999 55.43C4.68851 56.4713 3.18876 57.9631 2.13792 59.759C1.08709 61.555 0.521303 63.5933 0.49609 65.6739C0.470877 67.7545 0.987106 69.8059 1.99411 71.6268C3.00111 73.4476 4.46427 74.9754 6.23999 76.06L86.78 131C89.819 132.929 93.3351 133.975 96.9345 134.019C100.534 134.063 104.075 133.104 107.16 131.25L189.91 77.6C191.722 76.5603 193.227 75.0609 194.274 73.2533C195.32 71.4456 195.872 69.3938 195.872 67.305C195.872 65.2162 195.32 63.1644 194.274 61.3567C193.227 59.5491 191.722 58.0497 189.91 57.01V57ZM98.91 118.45C98.3572 118.687 97.7609 118.805 97.1597 118.796C96.5584 118.787 95.9657 118.652 95.42 118.4L18.42 65.91L95.13 16.13C95.7211 15.8775 96.3572 15.7473 97 15.7473C97.6428 15.7473 98.2789 15.8775 98.87 16.13L177.78 67.28L98.91 118.45Z"
          fill="#0080D4"/>
    <path d="M86.84 44.82L43.28 73.06L56.9 82.39L95.13 57.61C95.7211 57.3575 96.3572 57.2273 97 57.2273C97.6428 57.2273 98.2789 57.3575 98.87 57.61L138.24 83.13L152.24 74.07L107.17 44.82C104.099 42.98 100.585 42.0082 97.005 42.0082C93.4246 42.0082 89.9114 42.98 86.84 44.82V44.82Z"
          fill="#0080D4"/>
    <path d="M189.91 98.46L181.29 92.87L167.29 101.93L177.81 108.76L98.9 159.91C98.3495 160.15 97.7554 160.274 97.155 160.274C96.5545 160.274 95.9605 160.15 95.41 159.91L18.41 107.41L28.41 100.94L14.74 91.57L6.48999 96.91C4.68851 97.9513 3.18876 99.4431 2.13792 101.239C1.08709 103.035 0.521303 105.073 0.49609 107.154C0.470877 109.234 0.987106 111.286 1.99411 113.107C3.00111 114.928 4.46427 116.455 6.23999 117.54L86.78 172.46C89.8187 174.391 93.3357 175.437 96.9358 175.479C100.536 175.521 104.077 174.559 107.16 172.7L189.9 119.05C191.712 118.01 193.217 116.511 194.264 114.703C195.31 112.896 195.862 110.844 195.862 108.755C195.862 106.666 195.31 104.614 194.264 102.807C193.217 100.999 191.712 99.4997 189.9 98.46H189.91Z"
          fill="#0080D4"/>
</svg>
