<svg width="165" height="188" viewBox="0 0 165 188" fill="none" xmlns="http://www.w3.org/2000/svg">
<g clip-path="url(#clip0)">
<path fill-rule="evenodd" clip-rule="evenodd" d="M164.89 56.6C164.89 50.36 160.49 42.67 155.12 39.51L92.3698 2.60999C86.9898 -0.55001 78.1998 -0.55001 72.8198 2.60999L10.0798 39.51C4.70982 42.68 0.309814 50.36 0.309814 56.6V130.72C0.309814 136.96 4.70982 144.65 10.0798 147.81L72.8198 184.71C78.1998 187.87 86.9898 187.87 92.3698 184.71L155.11 147.81C160.49 144.65 164.88 136.96 164.88 130.72V56.6H164.89Z" fill="#FFC200"/>
<path fill-rule="evenodd" clip-rule="evenodd" d="M164.89 56.6C164.89 50.36 160.49 42.67 155.12 39.51L92.3698 2.60999C86.9898 -0.55001 78.1998 -0.55001 72.8198 2.60999L10.0798 39.51C4.70982 42.68 0.309814 50.36 0.309814 56.6V130.72C0.309814 136.96 4.70982 144.65 10.0798 147.81L72.8198 184.71C78.1998 187.87 86.9898 187.87 92.3698 184.71L155.11 147.81C160.49 144.65 164.88 136.96 164.88 130.72V56.6H164.89Z" fill="url(#paint0_linear)"/>
<path d="M135.25 57.59L102.49 38.1C98.2198 35.56 92.6998 36.96 90.1498 41.23C87.6098 45.5 89.0098 51.02 93.2798 53.57L121.64 70.44V117.35L93.3798 133.67C89.0798 136.16 87.5998 141.66 90.0898 145.96C91.7598 148.85 94.7798 150.46 97.8898 150.46C99.4198 150.46 100.97 150.07 102.38 149.25L135.14 130.33C137.92 128.72 139.64 125.75 139.64 122.54V65.33C139.65 62.16 137.98 59.22 135.25 57.59ZM71.8098 133.69L43.5498 117.37V70.45L71.9098 53.58C76.1798 51.04 77.5898 45.52 75.0398 41.24C72.4998 36.97 66.9698 35.57 62.6998 38.11L29.9498 57.59C27.2198 59.21 25.5498 62.15 25.5498 65.33V122.56C25.5498 125.77 27.2598 128.75 30.0498 130.35L62.8098 149.27C64.2298 150.09 65.7698 150.48 67.2998 150.48C70.4098 150.48 73.4298 148.87 75.0998 145.98C77.5898 141.68 76.1198 136.17 71.8098 133.69Z" fill="white"/>
</g>
<defs>
<linearGradient id="paint0_linear" x1="124.469" y1="21.1413" x2="40.7297" y2="166.181" gradientUnits="userSpaceOnUse">
<stop offset="1.86995e-07" stop-color="white" stop-opacity="0.4"/>
<stop offset="1" stop-color="white" stop-opacity="0"/>
</linearGradient>
<clipPath id="clip0">
<rect width="164.58" height="186.84" fill="white" transform="translate(0.210205 0.23999)"/>
</clipPath>
</defs>
</svg>
