<?xml version="1.0" encoding="UTF-8"?>
<svg width="185" height="48" viewBox="0 0 185 48" fill="none" xmlns="http://www.w3.org/2000/svg">
    <defs>
        <clipPath id="clip0_8101_5383">
            <rect width="185" height="48" fill="white"/>
        </clipPath>
    </defs>
    <g clip-path="url(#clip0_8101_5383)">
        <path d="M36.9784 31.6011L24.2759 39.013L24.2455 25.9359L40.2844 16.6052C41.2868 16.023 41.9095 14.9497 41.9146 13.7853C41.9196 12.6208 41.3121 11.5425 40.3097 10.9501L22.6862 0.46008C21.6585 -0.152514 20.3725 -0.152514 19.3397 0.455017L1.60996 10.9451C0.612594 11.5374 0 12.6107 0 13.7701V34.3299C0 35.4944 0.617656 36.5727 1.62515 37.16L19.3043 47.5184C19.7903 47.8171 20.3624 47.9893 20.9699 47.9994C20.9801 47.9994 20.9953 47.9994 21.0104 47.9994C21.0307 47.9994 21.0459 47.9994 21.0661 47.9994C21.6686 47.9893 22.2306 47.8171 22.7115 47.5235L40.2844 37.2714C41.8488 36.3601 42.3803 34.3502 41.464 32.7807C40.5527 31.2163 38.5478 30.6898 36.9784 31.6011ZM19.3094 21.2174C18.2968 21.8047 17.6741 22.8932 17.6791 24.0627L17.7146 38.9826L6.56133 32.4516V15.6433L21.0003 7.09736L32.1586 13.7397L19.3094 21.2174Z" fill="#4361EE"/>
        <path class="change-color" d="M77.445 31.0043H71.6178C71.4152 31.0043 71.314 30.9183 71.314 30.7512V17.4716C71.314 17.1881 71.1722 17.0463 70.8887 17.0463H69.3091C69.0256 17.0463 68.8839 17.1881 68.8839 17.4716V32.7662C68.8839 33.0497 69.0256 33.1914 69.3091 33.1914H77.445C77.7285 33.1914 77.8703 33.0497 77.8703 32.7662V31.46C77.8703 31.1562 77.7285 31.0043 77.445 31.0043ZM63.2541 24.929C64.6261 24.5088 65.3146 23.5722 65.3146 22.1192V20.8889C65.3146 19.6688 64.9704 18.7221 64.2869 18.0487C63.5983 17.3804 62.6364 17.0463 61.4011 17.0463H55.4524C55.1689 17.0463 55.0271 17.1881 55.0271 17.4716V32.7662C55.0271 33.0497 55.1689 33.1914 55.4524 33.1914H61.6289C62.8491 33.1914 63.8059 32.8573 64.4945 32.189C65.183 31.5207 65.5222 30.574 65.5222 29.3539V27.749C65.5222 26.9288 65.3096 26.2757 64.8843 25.7897C64.4489 25.2986 63.9072 25.0151 63.2541 24.929ZM57.4572 19.3802C57.4572 19.2132 57.5484 19.1271 57.7357 19.1271H61.0518C62.2922 19.1271 62.9098 19.7296 62.9098 20.9345V22.0888C62.9098 23.3089 62.2719 23.9215 61.0012 23.9215H57.7357C57.5534 23.9215 57.4572 23.8355 57.4572 23.6684V19.3802ZM63.1326 29.2982C63.1326 30.5031 62.5048 31.1056 61.2492 31.1056H57.7357C57.5534 31.1056 57.4572 31.0195 57.4572 30.8524V26.1795C57.4572 26.0124 57.5484 25.9264 57.7357 25.9264H61.153C62.4744 25.9264 63.1376 26.5288 63.1376 27.7338V29.2982H63.1326ZM178.244 19.1777H183.97C184.239 19.1777 184.37 19.036 184.37 18.7525V17.4716C184.37 17.1881 184.239 17.0463 183.97 17.0463H175.931C175.647 17.0463 175.506 17.1881 175.506 17.4716V32.7662C175.506 33.0497 175.647 33.1914 175.931 33.1914H183.965C184.234 33.1914 184.365 33.0497 184.365 32.7662V31.4853C184.365 31.2018 184.234 31.06 183.965 31.06H178.239C178.037 31.06 177.941 30.9689 177.941 30.7816V26.3111C177.941 26.1441 178.042 26.058 178.239 26.058H183.084C183.388 26.058 183.535 25.9163 183.535 25.6327V24.3519C183.535 24.0683 183.383 23.9266 183.084 23.9266H178.239C178.037 23.9266 177.941 23.8405 177.941 23.6735V19.4309C177.941 19.2638 178.042 19.1777 178.244 19.1777ZM169.729 26.8124V26.7111C171.319 26.2099 172.113 24.9948 172.113 23.071V20.9598C172.113 19.7397 171.764 18.7778 171.071 18.0842C170.377 17.3906 169.415 17.0412 168.195 17.0412H162.317C162.034 17.0412 161.892 17.183 161.892 17.4665V32.7611C161.892 33.0446 162.034 33.1864 162.317 33.1864H163.897C164.18 33.1864 164.322 33.0446 164.322 32.7611V27.2376C164.322 27.0706 164.423 26.9845 164.621 26.9845H167.157L169.845 32.7611C169.962 33.0446 170.22 33.1864 170.625 33.1864H172.184C172.584 33.1864 172.696 33.0193 172.508 32.6852L169.729 26.8124ZM169.653 23.1469C169.653 24.3671 169.035 24.9796 167.795 24.9796H164.605C164.423 24.9796 164.332 24.8936 164.332 24.7265V19.4309C164.332 19.2638 164.423 19.1777 164.605 19.1777H167.795C169.035 19.1777 169.653 19.7954 169.653 21.0358V23.1469ZM90.2031 17.0412H88.6236C88.34 17.0412 88.1983 17.183 88.1983 17.4665V29.1919C88.1983 30.4322 87.5857 31.0499 86.3656 31.0499H84.305C83.1001 31.0499 82.4976 30.4322 82.4976 29.1919V17.4716C82.4976 17.1881 82.3559 17.0463 82.0723 17.0463H80.4928C80.2093 17.0463 80.0675 17.1881 80.0675 17.4716V29.2982C80.0675 30.5183 80.4118 31.4752 81.0952 32.1637C81.7838 32.8522 82.7356 33.1914 83.9557 33.1914H86.7453C87.9654 33.1914 88.9273 32.8472 89.6209 32.1637C90.3145 31.4752 90.6638 30.5234 90.6638 29.2982V17.4463C90.6537 17.1779 90.5018 17.0412 90.2031 17.0412ZM126.69 17.0412H123.779C122.539 17.0412 121.577 17.3804 120.894 18.0589C120.205 18.7373 119.866 19.6941 119.866 20.9345V29.2982C119.866 30.5183 120.21 31.4752 120.894 32.1637C121.582 32.8522 122.544 33.1914 123.779 33.1914H124.934L126.64 36.1025C126.807 36.386 127.075 36.5278 127.445 36.5278H128.852C129.004 36.5278 129.11 36.4822 129.181 36.3911C129.247 36.3 129.242 36.1683 129.156 36.0013L127.475 33.1155C128.462 32.9839 129.227 32.5839 129.774 31.9207C130.315 31.2575 130.589 30.3867 130.589 29.2982V20.9345C130.589 19.6941 130.25 18.7373 129.571 18.0589C128.888 17.3804 127.926 17.0412 126.69 17.0412ZM128.143 29.1969C128.143 30.4373 127.541 31.055 126.336 31.055H124.149C122.944 31.055 122.342 30.4373 122.342 29.1969V21.0358C122.342 19.7954 122.944 19.1777 124.149 19.1777H126.336C127.541 19.1777 128.143 19.7954 128.143 21.0358V29.1969ZM102.632 17.0412H94.5976C94.3141 17.0412 94.1723 17.183 94.1723 17.4665V32.7611C94.1723 33.0446 94.3141 33.1864 94.5976 33.1864H102.632C102.901 33.1864 103.032 33.0446 103.032 32.7611V31.4802C103.032 31.1967 102.895 31.055 102.632 31.055H96.9062C96.7037 31.055 96.6075 30.9638 96.6075 30.7765V26.3061C96.6075 26.139 96.7088 26.0529 96.9062 26.0529H101.751C102.055 26.0529 102.202 25.9112 102.202 25.6277V24.3519C102.202 24.0683 102.05 23.9266 101.751 23.9266H96.9062C96.7037 23.9266 96.6075 23.8405 96.6075 23.6735V19.4309C96.6075 19.2638 96.7088 19.1777 96.9062 19.1777H102.632C102.901 19.1777 103.032 19.036 103.032 18.7525V17.4716C103.032 17.1881 102.901 17.0412 102.632 17.0412ZM155.042 17.4716C154.976 17.1881 154.774 17.0463 154.439 17.0463H151.928C151.609 17.0463 151.407 17.1881 151.326 17.4716L146.957 32.7662C146.891 33.0497 146.972 33.1914 147.21 33.1914H149.017C149.25 33.1914 149.402 33.0497 149.468 32.7662L150.42 29.5007H155.943L156.895 32.7662C156.93 32.9332 156.976 33.0446 157.032 33.1054C157.092 33.1661 157.194 33.1914 157.345 33.1914H159.128C159.381 33.1914 159.472 33.0497 159.406 32.7662L155.042 17.4716ZM150.921 27.4908L153.128 19.4562H153.229L155.462 27.4908H150.921ZM144.167 17.0412H142.587C142.304 17.0412 142.162 17.183 142.162 17.4665V29.1919C142.162 30.4322 141.55 31.0499 140.329 31.0499H138.269C137.064 31.0499 136.462 30.4322 136.462 29.1919V17.4716C136.462 17.1881 136.32 17.0463 136.036 17.0463H134.457C134.173 17.0463 134.031 17.1881 134.031 17.4716V29.2982C134.031 30.5183 134.376 31.4752 135.059 32.1637C135.748 32.8522 136.7 33.1914 137.92 33.1914H140.709C141.929 33.1914 142.891 32.8472 143.585 32.1637C144.278 31.4752 144.628 30.5234 144.628 29.2982V17.4463C144.618 17.1779 144.466 17.0412 144.167 17.0412ZM114.96 24.9898C114.474 24.7164 113.937 24.4936 113.355 24.3265C112.768 24.1595 112.186 24.0329 111.608 23.9519C111.031 23.8658 110.5 23.7696 110.014 23.6532C108.925 23.3849 108.383 22.8735 108.383 22.1192V21.3395C108.383 20.5548 108.54 19.9979 108.849 19.6688C109.158 19.3448 109.674 19.1777 110.393 19.1777H111.973C112.692 19.1777 113.208 19.3347 113.517 19.6435C113.826 19.9523 113.983 20.4687 113.983 21.1876V21.5167C113.983 21.8002 114.125 21.942 114.408 21.942H116.013C116.297 21.942 116.438 21.8002 116.438 21.5167V20.9598C116.438 19.7397 116.089 18.7778 115.395 18.0842C114.702 17.3906 113.735 17.0412 112.494 17.0412H109.831C108.611 17.0412 107.649 17.3906 106.956 18.0842C106.262 18.7778 105.913 19.7397 105.913 20.9598V22.0129C105.913 22.9495 106.115 23.719 106.525 24.3215C106.936 24.924 107.442 25.334 108.044 25.5517C108.647 25.7694 109.31 25.9618 110.029 26.1289C110.748 26.296 111.411 26.4276 112.013 26.5187C112.616 26.6099 113.122 26.8124 113.532 27.1212C113.942 27.43 114.145 27.8553 114.145 28.3869V28.964C114.145 29.7032 113.988 30.2297 113.669 30.5588C113.35 30.8879 112.834 31.0499 112.11 31.0499H110.378C109.659 31.0499 109.143 30.8929 108.834 30.5841C108.525 30.2753 108.368 29.769 108.368 29.0653V28.6147C108.368 28.3312 108.227 28.1894 107.943 28.1894H106.338C106.055 28.1894 105.913 28.3312 105.913 28.6147V29.2678C105.913 30.493 106.262 31.4498 106.966 32.1434C107.67 32.837 108.632 33.1864 109.852 33.1864H112.667C113.887 33.1864 114.849 32.837 115.542 32.1434C116.236 31.4498 116.585 30.493 116.585 29.2678V28.2907C116.585 27.4857 116.433 26.8073 116.135 26.2453C115.841 25.6884 115.446 25.2682 114.96 24.9898Z" fill="white"/>
    </g>
</svg>
