<?xml version="1.0" encoding="UTF-8"?>
<svg width="43" height="48" viewBox="0 0 43 48" fill="none" xmlns="http://www.w3.org/2000/svg">
    <path d="M36.9784 31.6011L24.2759 39.013L24.2455 25.9359L40.2844 16.6052C41.2868 16.023 41.9095 14.9497 41.9146 13.7853C41.9196 12.6208 41.3121 11.5425 40.3097 10.9501L22.6862 0.46008C21.6585 -0.152514 20.3725 -0.152514 19.3397 0.455017L1.60996 10.9451C0.612594 11.5374 0 12.6107 0 13.7701V34.3299C0 35.4944 0.617656 36.5727 1.62515 37.16L19.3043 47.5184C19.7903 47.8171 20.3624 47.9893 20.9699 47.9994C20.9801 47.9994 20.9953 47.9994 21.0104 47.9994C21.0307 47.9994 21.0459 47.9994 21.0661 47.9994C21.6686 47.9893 22.2306 47.8171 22.7115 47.5235L40.2844 37.2714C41.8488 36.3601 42.3803 34.3502 41.464 32.7807C40.5527 31.2163 38.5478 30.6898 36.9784 31.6011ZM19.3094 21.2174C18.2968 21.8047 17.6741 22.8932 17.6791 24.0627L17.7146 38.9826L6.56133 32.4516V15.6433L21.0003 7.09736L32.1586 13.7397L19.3094 21.2174Z" fill="#4361EE"/>
</svg>
