<?xml version="1.0" encoding="UTF-8" standalone="no"?>
<svg
   height="40"
   width="40"
   viewBox="-19.20015 -28.483 124.63247 113.933"
   version="1.1"
   id="svg23"
   sodipodi:docname="symbol.svg"
   inkscape:version="1.1.2 (0a00cf5339, 2022-02-04)"
   xmlns:inkscape="http://www.inkscape.org/namespaces/inkscape"
   xmlns:sodipodi="http://sodipodi.sourceforge.net/DTD/sodipodi-0.dtd"
   xmlns:xlink="http://www.w3.org/1999/xlink"
   xmlns="http://www.w3.org/2000/svg"
   xmlns:svg="http://www.w3.org/2000/svg">
  <defs
     id="defs27" />
  <sodipodi:namedview
     id="namedview25"
     pagecolor="#ffffff"
     bordercolor="#666666"
     borderopacity="1.0"
     inkscape:pageshadow="2"
     inkscape:pageopacity="0.0"
     inkscape:pagecheckerboard="0"
     showgrid="false"
     inkscape:zoom="9.28"
     inkscape:cx="15.247845"
     inkscape:cy="16.702586"
     inkscape:window-width="1854"
     inkscape:window-height="1011"
     inkscape:window-x="0"
     inkscape:window-y="0"
     inkscape:window-maximized="1"
     inkscape:current-layer="svg23" />
  <g
     transform="translate(-21.447926,-35.516)"
     id="g9"
     style="display:inline">
    <linearGradient
       y2="120.789"
       x2="64"
       y1="7.0339999"
       x1="64"
       gradientUnits="userSpaceOnUse"
       id="a">
      <stop
         offset="0"
         stop-color="#4387fd"
         id="stop2" />
      <stop
         offset="1"
         stop-color="#4683ea"
         id="stop4" />
    </linearGradient>
    <path
       d="M 27.79,115.217 1.54,69.749 a 11.499,11.499 0 0 1 0,-11.499 L 27.79,12.783 a 11.5,11.5 0 0 1 9.96,-5.75 h 52.5 a 11.5,11.5 0 0 1 9.959,5.75 l 26.25,45.467 a 11.499,11.499 0 0 1 0,11.5 l -26.25,45.466 a 11.5,11.5 0 0 1 -9.959,5.75 h -52.5 a 11.499,11.499 0 0 1 -9.96,-5.75 z"
       fill="url(#a)"
       id="path7"
       style="fill:url(#a)" />
  </g>
  <g
     transform="translate(-21.447926,-35.516)"
     id="g19"
     style="display:inline">
    <defs
       id="defs12">
      <path
         d="M 27.791,115.217 1.541,69.749 a 11.499,11.499 0 0 1 0,-11.499 l 26.25,-45.467 a 11.499,11.499 0 0 1 9.959,-5.75 h 52.5 a 11.5,11.5 0 0 1 9.96,5.75 l 26.25,45.467 a 11.499,11.499 0 0 1 0,11.5 l -26.25,45.466 a 11.499,11.499 0 0 1 -9.96,5.75 h -52.5 a 11.499,11.499 0 0 1 -9.959,-5.75 z"
         id="b" />
    </defs>
    <clipPath
       id="c">
      <use
         height="100%"
         width="100%"
         xlink:href="#b"
         overflow="visible"
         id="use14"
         x="0"
         y="0" />
    </clipPath>
    <path
       clip-path="url(#c)"
       opacity="0.07"
       d="m 49.313,53.875 -7.01,6.99 5.957,5.958 -5.898,10.476 44.635,44.636 10.816,0.002 L 118.936,84 85.489,50.55 Z"
       id="path17" />
  </g>
  <path
     d="m 63.252074,14.754 h -41.436 c -0.667,0 -1.212,0.546 -1.212,1.214 v 8.566 c 0,0.666 0.546,1.212 1.212,1.212 h 41.436 c 0.667,0 1.213,-0.546 1.213,-1.212 v -8.568 c 0,-0.666 -0.545,-1.213 -1.212,-1.213 m -6.416,7.976 a 2.484,2.484 0 0 1 -2.477,-2.48 2.475,2.475 0 0 1 2.477,-2.477 c 1.37,0 2.48,1.103 2.48,2.477 a 2.48,2.48 0 0 1 -2.48,2.48 m 6.415,8.491 -41.436,0.002 c -0.667,0 -1.212,0.546 -1.212,1.214 v 8.565 c 0,0.666 0.546,1.213 1.212,1.213 h 41.436 c 0.667,0 1.213,-0.547 1.213,-1.213 v -8.567 c 0,-0.666 -0.545,-1.214 -1.212,-1.214 m -6.416,7.976 a 2.483,2.483 0 0 1 -2.477,-2.48 2.475,2.475 0 0 1 2.477,-2.477 2.48,2.48 0 1 1 0,4.956"
     fill="#ffffff"
     id="path21"
     style="display:inline" />
</svg>
