<svg width="630" height="186" viewBox="0 0 630 186" fill="none" xmlns="http://www.w3.org/2000/svg">
  <g clip-path="url(#clip0)">
  <path d="M235.07 114.436H243.775C248.644 114.436 251.08 111.981 251.08 107.069V74.7159C251.08 69.8047 248.644 67.3492 243.775 67.3492H235.07C230.267 67.3492 227.865 69.8047 227.865 74.7159V107.069C227.865 111.981 230.267 114.436 235.07 114.436ZM245.276 122.898H233.669C228.732 122.898 224.896 121.538 222.162 118.816C219.493 116.096 218.159 112.313 218.159 107.468V74.3177C218.159 69.4065 219.493 65.6236 222.162 62.969C224.896 60.2478 228.732 58.8874 233.669 58.8874H245.276C250.212 58.8874 254.048 60.2478 256.784 62.969C259.518 65.6236 260.886 69.4065 260.886 74.3177V107.468C260.886 112.313 259.518 116.096 256.784 118.816C254.048 121.538 250.212 122.898 245.276 122.898ZM281.374 136.934H275.07C273.936 136.934 273.369 136.371 273.369 135.242V73.8199C273.369 72.6916 273.936 72.1276 275.07 72.1276H281.374C282.509 72.1276 283.075 72.6916 283.075 73.8199V77.4038H283.476C285.077 73.8862 288.446 72.1276 293.582 72.1276H298.685C303.488 72.1276 307.158 73.4549 309.692 76.1096C312.294 78.7642 313.595 82.5804 313.595 87.5579V107.468C313.595 112.379 312.294 116.195 309.692 118.916C307.158 121.571 303.488 122.898 298.685 122.898H293.582C288.446 122.898 285.077 121.14 283.476 117.622H283.075V135.242C283.075 136.371 282.509 136.934 281.374 136.934ZM291.281 114.436H296.584C301.387 114.436 303.788 111.981 303.788 107.069V87.9561C303.788 83.0449 301.387 80.5894 296.584 80.5894H291.281C285.811 80.5894 283.075 83.4099 283.075 89.0512V105.974C283.075 111.616 285.811 114.436 291.281 114.436ZM361.283 122.898H339.669C334.733 122.898 330.898 121.538 328.162 118.816C325.494 116.096 324.159 112.313 324.159 107.468V87.5579C324.159 82.6467 325.494 78.8638 328.162 76.2092C330.898 73.488 334.733 72.1276 339.669 72.1276H347.874C352.812 72.1276 356.647 73.488 359.382 76.2092C362.117 78.8638 363.484 82.6467 363.484 87.5579V100.2C363.484 101.395 362.884 101.992 361.683 101.992H334.866C334.133 101.992 333.765 102.325 333.765 102.988V107.268C333.765 112.114 336.201 114.536 341.07 114.536H361.283C362.484 114.536 363.084 115.133 363.084 116.328V121.305C363.084 122.367 362.484 122.898 361.283 122.898ZM334.866 95.2233H352.777C353.445 95.2233 353.778 94.8914 353.778 94.2278V87.8566C353.778 85.3346 353.212 83.5095 352.077 82.3813C350.943 81.1867 349.109 80.5894 346.574 80.5894H341.07C338.535 80.5894 336.701 81.1867 335.567 82.3813C334.433 83.5095 333.866 85.3346 333.866 87.8566V94.2278C333.866 94.8914 334.2 95.2233 334.866 95.2233ZM382.513 122.898H376.209C375.075 122.898 374.508 122.334 374.508 121.205V73.8199C374.508 72.6916 375.075 72.1276 376.209 72.1276H382.513C383.647 72.1276 384.214 72.6916 384.214 73.8199V77.4038H384.615C386.216 73.8862 389.584 72.1276 394.721 72.1276H399.124C403.993 72.1276 407.729 73.4549 410.331 76.1096C412.933 78.7642 414.233 82.5804 414.233 87.5579V121.205C414.233 122.334 413.633 122.898 412.432 122.898H406.128C404.994 122.898 404.427 122.334 404.427 121.205V87.9561C404.427 83.0449 401.992 80.5894 397.123 80.5894H392.42C386.949 80.5894 384.214 83.4099 384.214 89.0512V121.205C384.214 122.334 383.647 122.898 382.513 122.898ZM435.207 122.898H428.903C427.769 122.898 427.202 122.334 427.202 121.205V60.5797C427.202 59.4514 427.769 58.8874 428.903 58.8874H435.207C436.341 58.8874 436.908 59.4514 436.908 60.5797V85.4674C436.908 86.131 437.308 86.4629 438.109 86.4629H459.222C459.889 86.4629 460.223 86.131 460.223 85.4674V60.5797C460.223 59.4514 460.79 58.8874 461.924 58.8874H468.328C469.462 58.8874 470.029 59.4514 470.029 60.5797V121.205C470.029 122.334 469.462 122.898 468.328 122.898H461.924C460.79 122.898 460.223 122.334 460.223 121.205V96.0197C460.223 95.356 459.889 95.0242 459.222 95.0242H438.109C437.308 95.0242 436.908 95.356 436.908 96.0197V121.205C436.908 122.334 436.341 122.898 435.207 122.898ZM518.382 122.898H486.361C485.227 122.898 484.66 122.334 484.66 121.205V60.5797C484.66 59.4514 485.227 58.8874 486.361 58.8874H518.382C519.448 58.8874 519.983 59.4514 519.983 60.5797V65.6568C519.983 66.785 519.448 67.3492 518.382 67.3492H495.567C494.767 67.3492 494.366 67.681 494.366 68.3447V85.1687C494.366 85.8323 494.767 86.1642 495.567 86.1642H514.879C516.08 86.1642 516.68 86.7283 516.68 87.8566V92.9336C516.68 94.0618 516.08 94.626 514.879 94.626H495.567C494.767 94.626 494.366 94.9578 494.366 95.6215V113.341C494.366 114.072 494.767 114.436 495.567 114.436H518.382C519.448 114.436 519.983 115 519.983 116.128V121.205C519.983 122.334 519.448 122.898 518.382 122.898ZM536.84 122.898H529.436C528.901 122.898 528.501 122.733 528.235 122.4C528.035 122.069 528.068 121.638 528.335 121.106L544.845 89.748L529.035 60.6793C528.768 60.2147 528.735 59.8165 528.935 59.4847C529.201 59.0865 529.602 58.8874 530.136 58.8874H537.241C538.574 58.8874 539.508 59.4514 540.042 60.5797L551.55 83.6754H551.95L563.457 60.5797C564.057 59.4514 564.924 58.8874 566.059 58.8874H573.463C573.997 58.8874 574.364 59.0865 574.564 59.4847C574.83 59.8829 574.864 60.3142 574.664 60.7788L558.654 89.748L575.165 121.006C575.431 121.538 575.465 122.002 575.265 122.4C575.065 122.733 574.664 122.898 574.064 122.898H566.559C565.491 122.898 564.724 122.367 564.258 121.305L551.95 97.0152H551.55L539.242 121.305C538.775 122.367 537.974 122.898 536.84 122.898ZM588.909 122.898H581.705C580.771 122.898 580.438 122.334 580.704 121.205L598.115 60.5797C598.449 59.4514 599.25 58.8874 600.517 58.8874H610.523C611.858 58.8874 612.658 59.4514 612.925 60.5797L630.336 121.205C630.603 122.334 630.235 122.898 629.235 122.898H622.13C621.53 122.898 621.097 122.798 620.829 122.599C620.629 122.334 620.463 121.869 620.329 121.205L616.527 108.264H594.513L590.71 121.205C590.444 122.334 589.844 122.898 588.909 122.898ZM605.32 68.4442L596.514 100.3H614.626L605.72 68.4442H605.32Z" fill="white"/>
  <path fill-rule="evenodd" clip-rule="evenodd" d="M165.104 56.9467C165.104 50.7348 160.702 43.0794 155.328 39.9336L92.5383 3.19944C87.1549 0.0536388 78.3593 0.0536388 72.9759 3.19944L10.1961 39.9336C4.82271 43.0893 0.419922 50.7348 0.419922 56.9467V130.733C0.419922 136.945 4.82271 144.601 10.1961 147.747L72.9759 184.481C78.3593 187.627 87.1549 187.627 92.5383 184.481L155.318 147.747C160.702 144.601 165.094 136.945 165.094 130.733V56.9467H165.104Z" fill="#FF3E96"/>
  <path fill-rule="evenodd" clip-rule="evenodd" d="M165.104 56.9467C165.104 50.7348 160.702 43.0794 155.328 39.9336L92.5383 3.19944C87.1549 0.0536388 78.3593 0.0536388 72.9759 3.19944L10.1961 39.9336C4.82271 43.0893 0.419922 50.7348 0.419922 56.9467V130.733C0.419922 136.945 4.82271 144.601 10.1961 147.747L72.9759 184.481C78.3593 187.627 87.1549 187.627 92.5383 184.481L155.318 147.747C160.702 144.601 165.094 136.945 165.094 130.733V56.9467H165.104Z" fill="url(#paint0_linear)"/>
  <path d="M77.2384 156.248C75.6675 156.248 74.0664 155.84 72.6255 154.974L29.5982 129.36C26.8765 127.747 25.2155 124.82 25.2155 121.674V65.0202C25.2155 61.7848 26.9666 58.8082 29.7984 57.2154L59.4071 40.6005C62.1989 39.0375 65.6111 39.0574 68.3728 40.6701C71.1346 42.2729 72.8357 45.2196 72.8357 48.4052V77.0658L106.217 96.4881C108.979 98.0909 110.68 101.038 110.68 104.223V123.954L122.277 117.443V71.0928L83.6525 48.0867C79.3898 45.5481 77.9989 40.043 80.5506 35.8021C83.1022 31.5613 88.6357 30.1775 92.8984 32.7161L135.916 58.3304C138.638 59.9431 140.299 62.8699 140.299 66.0157V122.67C140.299 125.905 138.548 128.882 135.716 130.475L106.107 147.09C103.315 148.653 99.9028 148.633 97.1411 147.02C94.3793 145.417 92.6782 142.47 92.6782 139.285V109.35L59.2971 89.9377C56.5353 88.3349 54.8342 85.3882 54.8342 82.2026V63.736L43.2369 70.2466V116.587L81.8814 139.593C86.1441 142.132 87.535 147.637 84.9834 151.878C83.2923 154.695 80.3004 156.248 77.2384 156.248Z" fill="white"/>
  </g>
  <defs>
  <linearGradient id="paint0_linear" x1="124.658" y1="21.6474" x2="41.5098" y2="166.405" gradientUnits="userSpaceOnUse">
  <stop offset="1.86995e-07" stop-color="white" stop-opacity="0.4"/>
  <stop offset="1" stop-color="white" stop-opacity="0"/>
  </linearGradient>
  <clipPath id="clip0">
  <rect width="630" height="186" fill="white"/>
  </clipPath>
  </defs>
  </svg>
  