<svg width="638" height="225" viewBox="0 0 638 225" fill="none" xmlns="http://www.w3.org/2000/svg">
<path d="M294.344 63.3178C294.344 62.3337 294.836 61.8416 295.82 61.8416H307.039C308.023 61.8416 308.515 62.3337 308.515 63.3178V163.7C308.515 164.684 308.023 165.176 307.039 165.176H295.82C294.836 165.176 294.344 164.684 294.344 163.7V119.857C294.344 119.463 294.147 119.266 293.753 119.266H251.681C251.288 119.266 251.091 119.463 251.091 119.857V163.7C251.091 164.684 250.599 165.176 249.614 165.176H238.395C237.411 165.176 236.919 164.684 236.919 163.7V63.3178C236.919 62.3337 237.411 61.8416 238.395 61.8416H249.614C250.599 61.8416 251.091 62.3337 251.091 63.3178V106.423C251.091 106.817 251.288 107.014 251.681 107.014H293.753C294.147 107.014 294.344 106.817 294.344 106.423V63.3178Z" fill="black"/>
<path d="M357.751 88.8562C363.755 88.8562 368.971 89.9388 373.399 92.1039C377.926 94.1706 381.371 97.123 383.733 100.961C386.193 104.701 387.423 108.982 387.423 113.804V163.7C387.423 164.684 386.931 165.176 385.947 165.176H374.728C373.744 165.176 373.252 164.684 373.252 163.7V158.386C373.252 157.894 373.006 157.795 372.513 158.09C369.955 160.748 366.805 162.814 363.066 164.29C359.424 165.668 355.34 166.357 350.813 166.357C343.531 166.357 337.478 164.537 332.656 160.895C327.932 157.155 325.57 151.546 325.57 144.066C325.57 136.39 328.227 130.387 333.542 126.057C338.954 121.628 346.483 119.414 356.128 119.414H372.661C373.055 119.414 373.252 119.217 373.252 118.823V114.837C373.252 110.507 371.972 107.161 369.413 104.799C366.953 102.339 363.164 101.109 358.047 101.109C353.913 101.109 350.518 101.945 347.861 103.618C345.302 105.193 343.727 107.358 343.137 110.114C342.842 111.098 342.251 111.541 341.365 111.442L329.408 109.818C328.424 109.622 327.981 109.228 328.08 108.637C328.867 102.831 331.967 98.1071 337.38 94.4658C342.792 90.7261 349.583 88.8562 357.751 88.8562ZM353.913 154.4C359.129 154.4 363.656 153.022 367.494 150.267C371.332 147.511 373.252 144.017 373.252 139.785V131.076C373.252 130.682 373.055 130.485 372.661 130.485H358.785C352.978 130.485 348.353 131.617 344.908 133.881C341.464 136.144 339.742 139.293 339.742 143.328C339.742 146.97 341.021 149.725 343.58 151.595C346.237 153.465 349.681 154.4 353.913 154.4Z" fill="black"/>
<path d="M467.227 109.523C468.802 114.542 469.589 120.496 469.589 127.385C469.589 134.766 468.654 141.065 466.784 146.281C464.619 152.678 461.175 157.648 456.451 161.19C451.825 164.635 445.97 166.357 438.884 166.357C435.44 166.357 432.241 165.668 429.289 164.29C426.336 162.913 423.778 160.994 421.612 158.533C421.416 158.336 421.219 158.287 421.022 158.386C420.924 158.484 420.874 158.632 420.874 158.829V163.7C420.874 164.684 420.382 165.176 419.398 165.176H408.179C407.195 165.176 406.703 164.684 406.703 163.7V63.3178C406.703 62.3337 407.195 61.8416 408.179 61.8416H419.398C420.382 61.8416 420.874 62.3337 420.874 63.3178V96.2373C420.874 96.4341 420.924 96.5817 421.022 96.6801C421.219 96.7785 421.416 96.7293 421.612 96.5325C423.778 94.0721 426.336 92.2023 429.289 90.9229C432.34 89.5451 435.538 88.8562 438.884 88.8562C446.265 88.8562 452.318 90.6769 457.041 94.3182C461.765 97.9595 465.161 103.028 467.227 109.523ZM451.579 145.985C454.04 141.36 455.27 135.258 455.27 127.681C455.27 119.611 453.695 113.115 450.546 108.195C447.692 103.471 443.313 101.109 437.408 101.109C431.897 101.109 427.714 103.618 424.86 108.637C422.301 113.164 421.022 119.463 421.022 127.533C421.022 135.603 422.203 141.803 424.565 146.133C427.517 151.447 431.847 154.105 437.555 154.105C444.051 154.105 448.725 151.398 451.579 145.985Z" fill="black"/>
<path d="M515.608 88.8562C521.611 88.8562 526.827 89.9388 531.256 92.1039C535.783 94.1706 539.227 97.123 541.589 100.961C544.049 104.701 545.28 108.982 545.28 113.804V163.7C545.28 164.684 544.787 165.176 543.803 165.176H532.584C531.6 165.176 531.108 164.684 531.108 163.7V158.386C531.108 157.894 530.862 157.795 530.37 158.09C527.811 160.748 524.662 162.814 520.922 164.29C517.281 165.668 513.197 166.357 508.67 166.357C501.387 166.357 495.334 164.537 490.512 160.895C485.788 157.155 483.426 151.546 483.426 144.066C483.426 136.39 486.084 130.387 491.398 126.057C496.811 121.628 504.339 119.414 513.984 119.414H530.517C530.911 119.414 531.108 119.217 531.108 118.823V114.837C531.108 110.507 529.829 107.161 527.27 104.799C524.809 102.339 521.02 101.109 515.903 101.109C511.77 101.109 508.374 101.945 505.717 103.618C503.158 105.193 501.584 107.358 500.993 110.114C500.698 111.098 500.108 111.541 499.222 111.442L487.264 109.818C486.28 109.622 485.837 109.228 485.936 108.637C486.723 102.831 489.823 98.1071 495.236 94.4658C500.649 90.7261 507.439 88.8562 515.608 88.8562ZM511.77 154.4C516.986 154.4 521.513 153.022 525.351 150.267C529.189 147.511 531.108 144.017 531.108 139.785V131.076C531.108 130.682 530.911 130.485 530.517 130.485H516.641C510.835 130.485 506.209 131.617 502.765 133.881C499.32 136.144 497.598 139.293 497.598 143.328C497.598 146.97 498.877 149.725 501.436 151.595C504.093 153.465 507.538 154.4 511.77 154.4Z" fill="black"/>
<path d="M597.331 89.2991C600.48 89.2991 603.334 89.9388 605.893 91.2181C606.582 91.5134 606.828 92.1039 606.631 92.9896L604.269 104.061C604.171 104.947 603.58 105.242 602.498 104.947C600.825 104.258 598.856 103.914 596.593 103.914L594.526 104.061C589.901 104.258 586.062 105.882 583.012 108.933C580.059 111.885 578.583 115.772 578.583 120.595V163.7C578.583 164.684 578.091 165.176 577.107 165.176H565.888C564.903 165.176 564.411 164.684 564.411 163.7V91.5134C564.411 90.5293 564.903 90.0372 565.888 90.0372H577.107C578.091 90.0372 578.583 90.5293 578.583 91.5134V99.3373C578.583 99.6325 578.632 99.8294 578.731 99.9278C578.927 99.9278 579.075 99.8294 579.173 99.6325C583.602 92.7436 589.655 89.2991 597.331 89.2991Z" fill="black"/>
<path d="M627.755 78.2275C624.999 78.2275 622.736 77.3418 620.964 75.5703C619.193 73.7989 618.307 71.5354 618.307 68.7798C618.307 66.0242 619.193 63.7607 620.964 61.9892C622.736 60.2178 624.999 59.332 627.755 59.332C630.51 59.332 632.774 60.2178 634.545 61.9892C636.317 63.7607 637.202 66.0242 637.202 68.7798C637.202 71.5354 636.317 73.7989 634.545 75.5703C632.774 77.3418 630.51 78.2275 627.755 78.2275ZM621.85 165.029C620.866 165.029 620.374 164.537 620.374 163.552V91.5134C620.374 90.5293 620.866 90.0372 621.85 90.0372H633.069C634.053 90.0372 634.545 90.5293 634.545 91.5134V163.552C634.545 164.537 634.053 165.029 633.069 165.029H621.85Z" fill="black"/>
<path d="M67.02 165.59C75.4313 165.59 82.25 158.771 82.25 150.36C82.25 141.949 75.4313 135.13 67.02 135.13C58.6087 135.13 51.79 141.949 51.79 150.36C51.79 158.771 58.6087 165.59 67.02 165.59Z" fill="#9E38C1"/>
<path d="M120.32 89.66C128.731 89.66 135.55 82.8412 135.55 74.43C135.55 66.0187 128.731 59.2 120.32 59.2C111.909 59.2 105.09 66.0187 105.09 74.43C105.09 82.8412 111.909 89.66 120.32 89.66Z" fill="#9E38C1"/>
<path d="M88.91 217.81L4.76 169.22C1.82 167.52 0 164.38 0 160.98V63.81C0 60.41 1.81 57.27 4.76 55.57L62.26 22.37C65.21 20.67 68.83 20.67 71.78 22.37C74.72 24.07 76.54 27.21 76.54 30.61V151.45H57.5V47.1L19.04 69.31V155.49L98.43 201.33L88.91 217.81Z" fill="#9E38C1"/>
<path d="M120.32 203.69C118.68 203.69 117.03 203.27 115.56 202.41C112.62 200.71 110.8 197.57 110.8 194.17V75.85H129.84V177.69L168.3 155.48V69.31L88.91 23.47L98.43 6.97998L182.58 55.56C185.53 57.26 187.34 60.4 187.34 63.8V160.97C187.34 164.37 185.53 167.51 182.58 169.21L125.08 202.41C123.6 203.27 121.96 203.69 120.32 203.69Z" fill="#9E38C1"/>
<path d="M120.32 102.88H67.02V121.92H120.32V102.88Z" fill="#9E38C1"/>
<path d="M93.6699 30.46C102.081 30.46 108.9 23.6413 108.9 15.23C108.9 6.8187 102.081 0 93.6699 0C85.2586 0 78.4399 6.8187 78.4399 15.23C78.4399 23.6413 85.2586 30.46 93.6699 30.46Z" fill="#9E38C1"/>
<path d="M93.6699 224.79C102.081 224.79 108.9 217.971 108.9 209.56C108.9 201.149 102.081 194.33 93.6699 194.33C85.2586 194.33 78.4399 201.149 78.4399 209.56C78.4399 217.971 85.2586 224.79 93.6699 224.79Z" fill="#9E38C1"/>
<g opacity="0.5">
<path opacity="0.5" d="M33.92 124.05V82.1499C33.92 79.6599 35.94 77.6499 38.42 77.6499C40.91 77.6499 42.92 79.6699 42.92 82.1499V124.06C42.92 126.55 40.9 128.56 38.42 128.56C35.94 128.56 33.92 126.54 33.92 124.05Z" fill="#9E38C1"/>
</g>
<g opacity="0.5">
<path opacity="0.5" d="M153.41 100.74V142.65C153.41 145.14 151.39 147.15 148.91 147.15C146.42 147.15 144.41 145.13 144.41 142.65V100.74C144.41 98.25 146.43 96.24 148.91 96.24C151.4 96.23 153.41 98.25 153.41 100.74Z" fill="#9E38C1"/>
</g>
</svg>
