<svg width="188" height="225" viewBox="0 0 188 225" fill="none" xmlns="http://www.w3.org/2000/svg">
<path d="M67.02 165.59C75.4313 165.59 82.25 158.771 82.25 150.36C82.25 141.949 75.4313 135.13 67.02 135.13C58.6087 135.13 51.79 141.949 51.79 150.36C51.79 158.771 58.6087 165.59 67.02 165.59Z" fill="#9E38C1"/>
<path d="M120.32 89.66C128.731 89.66 135.55 82.8412 135.55 74.43C135.55 66.0187 128.731 59.2 120.32 59.2C111.909 59.2 105.09 66.0187 105.09 74.43C105.09 82.8412 111.909 89.66 120.32 89.66Z" fill="#9E38C1"/>
<path d="M88.91 217.81L4.76 169.22C1.82 167.52 0 164.38 0 160.98V63.81C0 60.41 1.81 57.27 4.76 55.57L62.26 22.37C65.21 20.67 68.83 20.67 71.78 22.37C74.72 24.07 76.54 27.21 76.54 30.61V151.45H57.5V47.1L19.04 69.31V155.49L98.43 201.33L88.91 217.81Z" fill="#9E38C1"/>
<path d="M120.32 203.69C118.68 203.69 117.03 203.27 115.56 202.41C112.62 200.71 110.8 197.57 110.8 194.17V75.85H129.84V177.69L168.3 155.48V69.31L88.91 23.47L98.43 6.97998L182.58 55.56C185.53 57.26 187.34 60.4 187.34 63.8V160.97C187.34 164.37 185.53 167.51 182.58 169.21L125.08 202.41C123.6 203.27 121.96 203.69 120.32 203.69Z" fill="#9E38C1"/>
<path d="M120.32 102.88H67.02V121.92H120.32V102.88Z" fill="#9E38C1"/>
<path d="M93.6699 30.46C102.081 30.46 108.9 23.6413 108.9 15.23C108.9 6.8187 102.081 0 93.6699 0C85.2586 0 78.4399 6.8187 78.4399 15.23C78.4399 23.6413 85.2586 30.46 93.6699 30.46Z" fill="#9E38C1"/>
<path d="M93.6699 224.79C102.081 224.79 108.9 217.971 108.9 209.56C108.9 201.149 102.081 194.33 93.6699 194.33C85.2586 194.33 78.4399 201.149 78.4399 209.56C78.4399 217.971 85.2586 224.79 93.6699 224.79Z" fill="#9E38C1"/>
<g opacity="0.5">
<path opacity="0.5" d="M33.92 124.05V82.1499C33.92 79.6599 35.94 77.6499 38.42 77.6499C40.91 77.6499 42.92 79.6699 42.92 82.1499V124.06C42.92 126.55 40.9 128.56 38.42 128.56C35.94 128.56 33.92 126.54 33.92 124.05Z" fill="#9E38C1"/>
</g>
<g opacity="0.5">
<path opacity="0.5" d="M153.41 100.74V142.65C153.41 145.14 151.39 147.15 148.91 147.15C146.42 147.15 144.41 145.13 144.41 142.65V100.74C144.41 98.25 146.43 96.24 148.91 96.24C151.4 96.23 153.41 98.25 153.41 100.74Z" fill="#9E38C1"/>
</g>
</svg>
