<?xml version="1.0" encoding="UTF-8" standalone="no"?>

<svg
   width="46mm"
   height="50mm"
   viewBox="0 0 46 50"
   version="1.1"
   id="svg29575"
   sodipodi:docname="symbol.svg"
   xmlns:inkscape="http://www.inkscape.org/namespaces/inkscape"
   xmlns:sodipodi="http://sodipodi.sourceforge.net/DTD/sodipodi-0.dtd"
   xmlns="http://www.w3.org/2000/svg"
   xmlns:svg="http://www.w3.org/2000/svg">
  <sodipodi:namedview
     id="namedview29577"
     pagecolor="#ffffff"
     bordercolor="#666666"
     borderopacity="1.0"/>
  <defs
     id="defs29572" />
  <g id="Logo">
    <path
       style="color:#000000;display:inline;fill:#c0d696;fill-rule:evenodd;stroke-width:0.98933;stroke-linejoin:round;-inkscape-stroke:none"
       d="M 22.598321,14.081969 11.23835,20.513012 a 1.4813804,1.4869139 0 0 0 0.0039,2.592156 l 11.359973,6.386508 a 1.4813804,1.4869139 0 0 0 1.446515,0 l 11.379258,-6.386508 a 1.4813804,1.4869139 0 0 0 0.0039,-2.592156 L 24.052553,14.081969 a 1.4813804,1.4869139 0 0 0 -1.454232,0 z m 0.727117,3.000639 8.353147,4.72164 -8.353147,4.686799 -8.337719,-4.686799 z"
       id="path21995" />
    <path
       style="color:#000000;display:inline;fill:#c0d696;fill-rule:evenodd;stroke-width:0.98933;stroke-linecap:round;stroke-linejoin:round;-inkscape-stroke:none"
       d="m 12.632792,27.191839 a 1.4812323,1.4867653 0 0 0 -2.017407,0.565277 1.4812323,1.4867653 0 0 0 0.561247,2.024945 l 11.421689,6.467816 a 1.4813804,1.4869139 0 0 0 1.469661,-0.0079 l 11.111171,-6.458142 a 1.4812323,1.4867653 0 0 0 0.540031,-2.032685 1.4812323,1.4867653 0 0 0 -2.023191,-0.542045 l -10.380199,6.034176 z"
       id="path21999" />
    <path
       id="path19248"
       style="color:#000000;display:inline;fill:#81ae2c;stroke:#81ae2c;stroke-width:0.271074;stroke-linecap:square;stroke-linejoin:round;stroke-opacity:1;-inkscape-stroke:none;paint-order:markers stroke fill"
       d="M 25.823465,0.13552688 V 7.2536334 l 13.902581,8.0856636 -0.03111,19.368001 -13.871445,8.009353 v 7.104786 L 44.290186,39.158871 A 3.0681809,3.0796417 0 0 0 45.82822,36.49438 l 0.03624,-22.923214 a 3.0681809,3.0796417 0 0 0 -1.529866,-2.6691 z M 20.187216,0.16575778 1.7098123,10.834468 a 3.0681809,3.0796417 0 0 0 -1.53804043,2.664491 l -0.036231,22.923214 A 3.0681809,3.0796417 0 0 0 1.6654169,39.091789 L 20.187216,49.864473 V 42.746366 L 6.2739236,34.654043 6.3040321,15.286556 20.187218,7.2705528 Z" />
  </g>
</svg>
