<svg width="182" height="183" viewBox="0 0 182 183" fill="none" xmlns="http://www.w3.org/2000/svg">
    <path d="M2.9 181.7L90.3 92.2C90.8 91.6 91 90.8 90.5 90.1C85.2 82.7 75.4 81.4 71.8 76.4C61 61.7 58.3 53.3 53.6 53.8C53.3 53.8 53 54 52.8 54.2L21.2 86.6C3.1 105.2 0.5 146.2 0 180.5C0 182.1 1.9 182.8 2.9 181.7Z"
          fill="#3D77BC"/>
    <path fill-rule="evenodd" clip-rule="evenodd"
          d="M21.2 86.6C31.1 76.4 50.7 71.7 91.2 91.2C77.1 59.6 58.5 48.5 53.1 53.9L21.2 86.6Z" fill="#47B1E4"/>
    <path d="M181.7 179.5L92.2 92.2C91.6 91.7 90.8 91.5 90.1 92C82.7 97.3 81.4 107.1 76.4 110.7C61.6 121.5 53.3 124.2 53.8 128.8C53.8 129.1 54 129.4 54.2 129.6L86.5 161.2C105.1 179.4 146.1 182 180.4 182.4C182.1 182.5 182.8 180.6 181.7 179.5Z"
          fill="#07AD4B"/>
    <path fill-rule="evenodd" clip-rule="evenodd"
          d="M86.6 161.2C76.4 151.3 71.7 131.7 91.2 91.2C59.5 105.4 48.4 124 53.9 129.3L86.6 161.2Z" fill="#50B956"/>
    <path d="M179.5 0.7L92.1999 90.3C91.6999 90.9 91.5 91.7 92 92.4C97.3 99.8 107.1 101.1 110.7 106.1C121.5 120.9 124.2 129.2 128.8 128.7C129.1 128.7 129.4 128.5 129.6 128.3L161.2 96C179.4 77.4 182 36.4 182.4 2.1C182.5 0.4 180.6 -0.4 179.5 0.7Z"
          fill="#2EC0CE"/>
    <path fill-rule="evenodd" clip-rule="evenodd"
          d="M161.2 95.8C151.3 106 131.7 110.7 91.2 91.2C105.4 122.9 124 134 129.3 128.5L161.2 95.8Z" fill="#59C7DA"/>
    <path d="M0.70002 2.9L90.2 90.3C90.8 90.8 91.6 91 92.3 90.5C99.7 85.2 101 75.4 106 71.8C120.8 61 129.1 58.3 128.6 53.7C128.6 53.4 128.4 53.1 128.2 52.9L95.8 21.2C77.2 3.1 36.3 0.5 1.90002 0C0.40002 0 -0.39998 1.9 0.70002 2.9Z"
          fill="#E33D26"/>
    <path fill-rule="evenodd" clip-rule="evenodd"
          d="M95.8 21.2C106 31.1 110.7 50.7 91.2 91.2C122.9 77 134 58.4 128.5 53.1L95.8 21.2Z" fill="#F37559"/>
    <path d="M91.2 95.1C93.354 95.1 95.1 93.3539 95.1 91.2C95.1 89.0461 93.354 87.3 91.2 87.3C89.0461 87.3 87.3 89.0461 87.3 91.2C87.3 93.3539 89.0461 95.1 91.2 95.1Z"
          fill="#4B4949"/>
</svg>
