<svg width="220" height="250" viewBox="0 0 220 250" fill="none" xmlns="http://www.w3.org/2000/svg">
<path fill-rule="evenodd" clip-rule="evenodd" d="M220 75.4121C220 67.0627 214.118 56.7732 206.939 52.545L123.067 3.17116C115.875 -1.05705 104.125 -1.05705 96.9326 3.17116L13.0607 52.545C5.86865 56.7732 0 67.0627 0 75.4121V174.588C0 182.937 5.88202 193.227 13.0607 197.455L96.9326 246.829C104.125 251.057 115.875 251.057 123.067 246.829L206.939 197.455C214.131 193.227 220 182.937 220 174.588V75.4121Z" fill="#FF3E96"/>
<path fill-rule="evenodd" clip-rule="evenodd" d="M220 75.4121C220 67.0627 214.118 56.7732 206.939 52.545L123.067 3.17116C115.875 -1.05705 104.125 -1.05705 96.9326 3.17116L13.0607 52.545C5.86865 56.7732 0 67.0627 0 75.4121V174.588C0 182.937 5.88202 193.227 13.0607 197.455L96.9326 246.829C104.125 251.057 115.875 251.057 123.067 246.829L206.939 197.455C214.131 193.227 220 182.937 220 174.588V75.4121Z" fill="url(#paint0_linear)"/>
<path d="M103.002 211.371C100.903 211.371 98.7641 210.822 96.8391 209.658L39.3694 175.23C35.7332 173.062 33.5141 169.129 33.5141 164.9V88.7524C33.5141 84.4037 35.8535 80.403 39.6367 78.2621L79.1932 55.9302C82.9229 53.8294 87.4814 53.8562 91.171 56.0238C94.8606 58.1781 97.1332 62.1387 97.1332 66.4204V104.943L141.729 131.048C145.419 133.202 147.692 137.163 147.692 141.444V167.964L163.185 159.214V96.9278L111.557 66.0056C105.863 62.5936 104.004 55.1942 107.413 49.4942C110.822 43.7941 118.215 41.9342 123.91 45.3462L181.379 79.7741C185.015 81.9417 187.235 85.8756 187.235 90.1038V166.252C187.235 170.6 184.895 174.601 181.112 176.742L141.556 199.074C137.826 201.175 133.267 201.148 129.578 198.98C125.888 196.826 123.616 192.866 123.616 188.584V148.362L79.0194 122.257C75.3298 120.103 73.0571 116.142 73.0571 111.86V87.0531L57.5634 95.8038V158.09L109.191 189.012C114.886 192.424 116.744 199.823 113.335 205.523C111.076 209.283 107.092 211.371 103.002 211.371Z" fill="white"/>
<defs>
<linearGradient id="paint0_linear" x1="165.967" y1="27.9711" x2="53.87" y2="221.952" gradientUnits="userSpaceOnUse">
<stop offset="1.86995e-07" stop-color="white" stop-opacity="0.4"/>
<stop offset="1" stop-color="white" stop-opacity="0"/>
</linearGradient>
</defs>
</svg>
