<svg width="931" height="250" viewBox="0 0 931 250" fill="none" xmlns="http://www.w3.org/2000/svg">
<path fill-rule="evenodd" clip-rule="evenodd" d="M220 75.4121C220 67.0627 214.118 56.7732 206.939 52.545L123.067 3.17116C115.875 -1.05705 104.125 -1.05705 96.9326 3.17116L13.0607 52.545C5.86865 56.7732 0 67.0627 0 75.4121V174.588C0 182.937 5.88202 193.227 13.0607 197.455L96.9326 246.829C104.125 251.057 115.875 251.057 123.067 246.829L206.939 197.455C214.131 193.227 220 182.937 220 174.588V75.4121Z" fill="#FF3E96"/>
<path fill-rule="evenodd" clip-rule="evenodd" d="M220 75.4121C220 67.0627 214.118 56.7732 206.939 52.545L123.067 3.17116C115.875 -1.05705 104.125 -1.05705 96.9326 3.17116L13.0607 52.545C5.86865 56.7732 0 67.0627 0 75.4121V174.588C0 182.937 5.88202 193.227 13.0607 197.455L96.9326 246.829C104.125 251.057 115.875 251.057 123.067 246.829L206.939 197.455C214.131 193.227 220 182.937 220 174.588V75.4121Z" fill="url(#paint0_linear)"/>
<path d="M103.002 211.371C100.903 211.371 98.7641 210.822 96.8391 209.658L39.3694 175.23C35.7332 173.062 33.5141 169.129 33.5141 164.9V88.7524C33.5141 84.4037 35.8535 80.403 39.6367 78.2621L79.1932 55.9302C82.9229 53.8294 87.4814 53.8562 91.171 56.0238C94.8606 58.1781 97.1332 62.1387 97.1332 66.4204V104.943L141.729 131.048C145.419 133.202 147.692 137.163 147.692 141.444V167.965L163.185 159.214V96.9278L111.557 66.0056C105.863 62.5936 104.004 55.1942 107.413 49.4942C110.822 43.7941 118.215 41.9342 123.91 45.3462L181.379 79.7741C185.016 81.9417 187.235 85.8756 187.235 90.1038V166.252C187.235 170.6 184.895 174.601 181.112 176.742L141.556 199.074C137.826 201.175 133.267 201.148 129.578 198.98C125.888 196.826 123.616 192.866 123.616 188.584V148.362L79.0194 122.257C75.3298 120.103 73.0571 116.142 73.0571 111.86V87.0531L57.5634 95.8038V158.09L109.191 189.012C114.886 192.424 116.744 199.823 113.335 205.523C111.076 209.283 107.092 211.371 103.002 211.371Z" fill="white"/>
<path d="M861.215 184H849.173C847.617 184 847.049 183.016 847.5 181.065L876.602 75.9346C877.154 73.9839 878.492 73 880.616 73H897.341C899.566 73 900.904 73.9839 901.355 75.9346L930.457 181.065C930.909 183.016 930.29 184 928.617 184H916.742C915.739 184 915.036 183.793 914.652 183.396C914.267 182.999 913.949 182.222 913.732 181.065L907.376 158.624H870.581L864.226 181.065C863.774 183.033 862.77 184 861.215 184ZM888.644 89.5723L873.926 144.813H904.199L889.313 89.5723H888.644Z" fill="black"/>
<path d="M627.736 184H617.116C615.211 184 614.25 183.016 614.25 181.065V75.9347C614.25 73.984 615.211 73 617.116 73H627.736C629.641 73 630.602 73.984 630.602 75.9347V119.092C630.602 120.248 631.276 120.818 632.625 120.818H668.194C669.323 120.818 669.88 120.248 669.88 119.092V75.9347C669.88 73.984 670.841 73 672.745 73H683.534C685.439 73 686.4 73.984 686.4 75.9347V181.065C686.4 183.016 685.439 184 683.534 184H672.745C670.841 184 669.88 183.016 669.88 181.065V137.39C669.88 136.234 669.323 135.664 668.194 135.664H632.625C631.276 135.664 630.602 136.234 630.602 137.39V181.065C630.602 183.033 629.641 184 627.736 184Z" fill="black"/>
<path d="M756.034 184H705.723C703.946 184 703.05 183.016 703.05 181.065V75.9347C703.05 73.984 703.946 73 705.723 73H756.034C757.717 73 758.55 73.984 758.55 75.9347V84.7387C758.55 86.6894 757.717 87.6734 756.034 87.6734H720.187C718.93 87.6734 718.301 88.2431 718.301 89.3997V118.574C718.301 119.73 718.93 120.3 720.187 120.3H750.532C752.418 120.3 753.362 121.284 753.362 123.235V132.039C753.362 133.99 752.418 134.974 750.532 134.974H720.187C718.93 134.974 718.301 135.543 718.301 136.7V167.428C718.301 168.688 718.93 169.327 720.187 169.327H756.034C757.717 169.327 758.55 170.311 758.55 172.261V181.065C758.55 183.033 757.717 184 756.034 184Z" fill="black"/>
<path d="M388.595 184H378.362C376.526 184 375.6 183.016 375.6 181.065V75.9346C375.6 73.9839 376.526 73 378.362 73H417.022C424.933 73 431.105 75.3305 435.54 79.9914C439.975 84.6524 442.2 91.2468 442.2 99.7574V117.711C442.2 126.118 439.975 132.678 435.54 137.39C431.105 142.103 424.933 144.468 417.022 144.468H393.306C392.006 144.468 391.357 145.038 391.357 146.194V181.065C391.357 183.033 390.431 184 388.595 184ZM393.143 129.622H414.748C422.431 129.622 426.281 125.358 426.281 116.848V100.448C426.281 91.9373 422.431 87.6734 414.748 87.6734H393.143C391.958 87.6734 391.357 88.2431 391.357 89.3997V127.896C391.357 129.052 391.958 129.622 393.143 129.622Z" fill="black"/>
<path d="M538.493 184H528.257C526.391 184 525.45 183.016 525.45 181.065V75.9346C525.45 73.9839 526.375 73 528.257 73H537.503C539.269 73 540.474 73.6387 541.135 74.8989L581.09 149.992H581.75V75.9346C581.75 73.9839 582.691 73 584.557 73H594.793C596.659 73 597.6 73.9839 597.6 75.9346V181.065C597.6 183.016 596.659 184 594.793 184H585.878C584.111 184 582.691 183.085 581.585 181.238L541.96 107.008H541.3V181.065C541.3 183.033 540.359 184 538.493 184Z" fill="black"/>
<path d="M506.285 184H455.973C454.196 184 453.3 183.016 453.3 181.065V75.9346C453.3 73.9839 454.196 73 455.973 73H506.285C507.951 73 508.8 73.9839 508.8 75.9346V84.7387C508.8 86.6894 507.951 87.6734 506.285 87.6734H470.438C469.18 87.6734 468.551 88.2431 468.551 89.3997V118.574C468.551 119.73 469.18 120.3 470.438 120.3H500.782C502.668 120.3 503.612 121.284 503.612 123.235V132.039C503.612 133.99 502.668 134.974 500.782 134.974H470.438C469.18 134.974 468.551 135.543 468.551 136.7V167.428C468.551 168.688 469.18 169.327 470.438 169.327H506.285C507.951 169.327 508.8 170.311 508.8 172.261V181.065C508.8 183.033 507.967 184 506.285 184Z" fill="black"/>
<path d="M332.591 184H312.99C304.66 184 298.205 181.635 293.643 176.922C289.081 172.209 286.8 165.65 286.8 157.243V99.7574C286.8 91.2468 289.081 84.6524 293.643 79.9914C298.205 75.3305 304.66 73 312.99 73H332.591C340.921 73 347.409 75.3305 352.022 79.9914C356.635 84.6524 358.95 91.2468 358.95 99.7574V157.243C358.95 165.65 356.635 172.209 352.022 176.922C347.409 181.635 340.921 184 332.591 184ZM315.356 169.327H330.056C338.285 169.327 342.391 165.063 342.391 156.552V100.448C342.391 91.9373 338.285 87.6734 330.056 87.6734H315.356C307.245 87.6734 303.19 91.9373 303.19 100.448V156.552C303.19 165.063 307.245 169.327 315.356 169.327Z" fill="black"/>
<path fill-rule="evenodd" clip-rule="evenodd" d="M821.02 184C819.921 184 818.925 183.336 818.481 182.306L773.076 76.9902C772.263 75.1048 773.619 72.988 775.631 73.0001L787.432 73.0708C788.524 73.0773 789.511 73.7398 789.953 74.763L835.412 180.008C836.224 181.887 834.881 184 832.874 184H821.02Z" fill="black"/>
<path fill-rule="evenodd" clip-rule="evenodd" d="M787.386 184C788.486 184 789.481 183.336 789.925 182.306L835.33 76.9902C836.143 75.1048 834.788 72.988 832.775 73.0001L820.974 73.0708C819.882 73.0773 818.895 73.7398 818.453 74.763L772.994 180.008C772.182 181.887 773.526 184 775.532 184H787.386Z" fill="black"/>
<defs>
<linearGradient id="paint0_linear" x1="165.967" y1="27.9711" x2="53.87" y2="221.952" gradientUnits="userSpaceOnUse">
<stop offset="1.86995e-07" stop-color="white" stop-opacity="0.4"/>
<stop offset="1" stop-color="white" stop-opacity="0"/>
</linearGradient>
</defs>
</svg>
