<svg width="630" height="186" viewBox="0 0 630 186" fill="none" xmlns="http://www.w3.org/2000/svg">
<g clip-path="url(#clip0)">
<path d="M238.422 114.436H247.252C252.191 114.436 254.661 111.981 254.661 107.069V74.7159C254.661 69.8047 252.191 67.3492 247.252 67.3492H238.422C233.55 67.3492 231.114 69.8047 231.114 74.7159V107.069C231.114 111.981 233.55 114.436 238.422 114.436ZM248.774 122.898H237.001C231.993 122.898 228.103 121.538 225.329 118.816C222.623 116.096 221.27 112.313 221.27 107.468V74.3177C221.27 69.4065 222.623 65.6236 225.329 62.969C228.103 60.2478 231.993 58.8874 237.001 58.8874H248.774C253.781 58.8874 257.671 60.2478 260.446 62.969C263.22 65.6236 264.607 69.4065 264.607 74.3177V107.468C264.607 112.313 263.22 116.096 260.446 118.816C257.671 121.538 253.781 122.898 248.774 122.898ZM285.388 136.934H278.994C277.844 136.934 277.268 136.371 277.268 135.242V73.82C277.268 72.6917 277.844 72.1276 278.994 72.1276H285.388C286.539 72.1276 287.113 72.6917 287.113 73.82V77.4038H287.519C289.143 73.8863 292.56 72.1276 297.77 72.1276H302.946C307.818 72.1276 311.54 73.4549 314.11 76.1096C316.749 78.7642 318.069 82.5804 318.069 87.5579V107.468C318.069 112.379 316.749 116.195 314.11 118.916C311.54 121.571 307.818 122.898 302.946 122.898H297.77C292.56 122.898 289.143 121.14 287.519 117.622H287.113V135.242C287.113 136.371 286.539 136.934 285.388 136.934ZM295.436 114.436H300.815C305.686 114.436 308.122 111.981 308.122 107.069V87.9561C308.122 83.0449 305.686 80.5894 300.815 80.5894H295.436C289.888 80.5894 287.113 83.41 287.113 89.0512V105.974C287.113 111.616 289.888 114.436 295.436 114.436ZM366.438 122.898H344.516C339.509 122.898 335.619 121.538 332.844 118.816C330.138 116.096 328.784 112.313 328.784 107.468V87.5579C328.784 82.6467 330.138 78.8638 332.844 76.2092C335.619 73.4881 339.509 72.1276 344.516 72.1276H352.838C357.846 72.1276 361.736 73.4881 364.51 76.2092C367.285 78.8638 368.671 82.6467 368.671 87.5579V100.2C368.671 101.395 368.062 101.992 366.844 101.992H339.644C338.9 101.992 338.527 102.325 338.527 102.988V107.268C338.527 112.114 340.998 114.536 345.937 114.536H366.438C367.656 114.536 368.265 115.133 368.265 116.328V121.305C368.265 122.367 367.656 122.898 366.438 122.898ZM339.644 95.2233H357.811C358.488 95.2233 358.826 94.8914 358.826 94.2278V87.8566C358.826 85.3346 358.252 83.5095 357.101 82.3813C355.951 81.1867 354.09 80.5894 351.519 80.5894H345.937C343.366 80.5894 341.505 81.1867 340.354 82.3813C339.204 83.5095 338.629 85.3346 338.629 87.8566V94.2278C338.629 94.8914 338.968 95.2233 339.644 95.2233ZM387.972 122.898H381.578C380.427 122.898 379.852 122.334 379.852 121.205V73.82C379.852 72.6917 380.427 72.1276 381.578 72.1276H387.972C389.122 72.1276 389.697 72.6917 389.697 73.82V77.4038H390.103C391.727 73.8863 395.143 72.1276 400.354 72.1276H404.82C409.758 72.1276 413.548 73.4549 416.187 76.1096C418.826 78.7642 420.145 82.5804 420.145 87.5579V121.205C420.145 122.334 419.536 122.898 418.318 122.898H411.924C410.773 122.898 410.199 122.334 410.199 121.205V87.9561C410.199 83.0449 407.728 80.5894 402.79 80.5894H398.02C392.471 80.5894 389.697 83.41 389.697 89.0512V121.205C389.697 122.334 389.122 122.898 387.972 122.898ZM441.418 122.898H435.024C433.874 122.898 433.299 122.334 433.299 121.205V60.5797C433.299 59.4514 433.874 58.8874 435.024 58.8874H441.418C442.568 58.8874 443.143 59.4514 443.143 60.5797V85.4674C443.143 86.131 443.549 86.4629 444.361 86.4629H465.776C466.453 86.4629 466.791 86.131 466.791 85.4674V60.5797C466.791 59.4514 467.367 58.8874 468.517 58.8874H475.012C476.162 58.8874 476.738 59.4514 476.738 60.5797V121.205C476.738 122.334 476.162 122.898 475.012 122.898H468.517C467.367 122.898 466.791 122.334 466.791 121.205V96.0197C466.791 95.356 466.453 95.0242 465.776 95.0242H444.361C443.549 95.0242 443.143 95.356 443.143 96.0197V121.205C443.143 122.334 442.568 122.898 441.418 122.898ZM525.781 122.898H493.303C492.152 122.898 491.578 122.334 491.578 121.205V60.5797C491.578 59.4514 492.152 58.8874 493.303 58.8874H525.781C526.863 58.8874 527.405 59.4514 527.405 60.5797V65.6568C527.405 66.785 526.863 67.3492 525.781 67.3492H502.641C501.829 67.3492 501.423 67.681 501.423 68.3447V85.1687C501.423 85.8323 501.829 86.1642 502.641 86.1642H522.229C523.447 86.1642 524.056 86.7283 524.056 87.8566V92.9337C524.056 94.0619 523.447 94.626 522.229 94.626H502.641C501.829 94.626 501.423 94.9578 501.423 95.6215V113.341C501.423 114.072 501.829 114.436 502.641 114.436H525.781C526.863 114.436 527.405 115.001 527.405 116.128V121.205C527.405 122.334 526.863 122.898 525.781 122.898ZM544.503 122.898H536.993C536.451 122.898 536.045 122.733 535.775 122.4C535.572 122.069 535.606 121.638 535.876 121.106L552.623 89.748L536.587 60.6793C536.316 60.2147 536.282 59.8165 536.485 59.4847C536.755 59.0865 537.161 58.8874 537.703 58.8874H544.909C546.262 58.8874 547.209 59.4514 547.751 60.5797L559.423 83.6755H559.829L571.501 60.5797C572.109 59.4514 572.988 58.8874 574.139 58.8874H581.65C582.191 58.8874 582.563 59.0865 582.766 59.4847C583.036 59.8829 583.071 60.3142 582.868 60.7788L566.629 89.748L583.375 121.006C583.645 121.538 583.68 122.002 583.477 122.4C583.274 122.733 582.868 122.898 582.259 122.898H574.647C573.564 122.898 572.785 122.367 572.312 121.305L559.829 97.0152H559.423L546.939 121.305C546.465 122.367 545.653 122.898 544.503 122.898ZM597.316 122.898H590.009C589.062 122.898 588.724 122.334 588.994 121.205L606.654 60.5797C606.993 59.4514 607.805 58.8874 609.089 58.8874H619.239C620.593 58.8874 621.405 59.4514 621.675 60.5797L639.334 121.205C639.605 122.334 639.233 122.898 638.218 122.898H631.012C630.403 122.898 629.963 122.798 629.692 122.599C629.49 122.334 629.321 121.869 629.185 121.205L625.328 108.264H603L599.143 121.205C598.873 122.334 598.264 122.898 597.316 122.898ZM613.961 68.4442L605.03 100.3H623.4L614.367 68.4442H613.961Z" fill="#222222"/>
<path fill-rule="evenodd" clip-rule="evenodd" d="M167.457 56.9467C167.457 50.7348 162.991 43.0794 157.541 39.9336L93.8543 3.19944C88.394 0.0536388 79.4728 0.0536388 74.0124 3.19944L10.3358 39.9336C4.88561 43.0893 0.419922 50.7348 0.419922 56.9467V130.733C0.419922 136.945 4.88561 144.601 10.3358 147.747L74.0124 184.481C79.4728 187.627 88.394 187.627 93.8543 184.481L157.531 147.747C162.991 144.601 167.447 136.945 167.447 130.733V56.9467H167.457Z" fill="#FF3E96"/>
<path fill-rule="evenodd" clip-rule="evenodd" d="M167.457 56.9467C167.457 50.7348 162.991 43.0794 157.541 39.9336L93.8543 3.19944C88.394 0.0536388 79.4728 0.0536388 74.0124 3.19944L10.3358 39.9336C4.88561 43.0893 0.419922 50.7348 0.419922 56.9467V130.733C0.419922 136.945 4.88561 144.601 10.3358 147.747L74.0124 184.481C79.4728 187.627 88.394 187.627 93.8543 184.481L157.531 147.747C162.991 144.601 167.447 136.945 167.447 130.733V56.9467H167.457Z" fill="url(#paint0_linear)"/>
<path d="M78.3358 156.248C76.7424 156.248 75.1185 155.84 73.657 154.974L30.015 129.36C27.2544 127.747 25.5696 124.82 25.5696 121.674V65.0202C25.5696 61.7848 27.3458 58.8082 30.218 57.2154L60.2498 40.6005C63.0814 39.0375 66.5423 39.0574 69.3435 40.6701C72.1447 42.2729 73.8701 45.2196 73.8701 48.4052V77.0658L107.728 96.4881C110.53 98.0909 112.255 101.038 112.255 104.223V123.954L124.018 117.443V71.0928L84.8415 48.0867C80.5179 45.5481 79.1072 40.043 81.6952 35.8021C84.2833 31.5613 89.8959 30.1775 94.2195 32.7161L137.852 58.3304C140.612 59.9431 142.297 62.8699 142.297 66.0157V122.67C142.297 125.905 140.521 128.882 137.649 130.475L107.617 147.09C104.785 148.653 101.324 148.633 98.5228 147.02C95.7216 145.417 93.9962 142.47 93.9962 139.285V109.35L60.1381 89.9377C57.3369 88.3349 55.6116 85.3882 55.6116 82.2026V63.736L43.8485 70.2466V116.587L83.0451 139.593C87.3687 142.132 88.7794 147.637 86.1914 151.878C84.4761 154.695 81.4415 156.248 78.3358 156.248Z" fill="white"/>
</g>
<defs>
<linearGradient id="paint0_linear" x1="126.433" y1="21.6474" x2="43.8829" y2="167.417" gradientUnits="userSpaceOnUse">
<stop offset="1.86995e-07" stop-color="white" stop-opacity="0.4"/>
<stop offset="1" stop-color="white" stop-opacity="0"/>
</linearGradient>
<clipPath id="clip0">
<rect width="630" height="186" fill="white"/>
</clipPath>
</defs>
</svg>
